<?xml version="1.0" encoding="UTF-8"?>
<svg id="Capa_1" xmlns="http://www.w3.org/2000/svg" version="1.1" viewBox="0 0 3916.9 2326.6">
  <!-- Generator: Adobe Illustrator 29.8.1, SVG Export Plug-In . SVG Version: 2.1.1 Build 2)  -->
  <defs>
    <style>
      .st0 {
        fill: aqua;
      }

      .st1 {
        fill: blue;
      }

      .st2 {
        fill: #fff;
      }

      .st2, .st3, .st4, .st5, .st6, .st7 {
        opacity: .5;
      }

      .st3 {
        fill: #9500ff;
      }

      .st4 {
        fill: #0fa;
      }

      .st5 {
        fill: red;
      }

      .st8, .st6 {
        fill: #009e25;
      }

      .st7 {
        fill: #9b0000;
      }

      .st9 {
        fill: #f0f;
      }

      .st10 {
        fill: lime;
      }

      .st11 {
        fill: #ff0;
      }
    </style>
  </defs>
  <rect x="402" y="214.5" width="1029.2" height="1228.6"/>
  <rect class="st10" x="544.5" y="281.2" width="58.6" height="58.6"/>
  <rect class="st10" x="603.2" y="281.2" width="58.6" height="58.6"/>
  <rect class="st10" x="661.8" y="281.2" width="58.6" height="58.6"/>
  <rect class="st10" x="720.4" y="281.2" width="58.6" height="58.6"/>
  <rect class="st10" x="779.1" y="281.2" width="58.6" height="58.6"/>
  <rect class="st10" x="837.7" y="281.2" width="58.6" height="58.6"/>
  <rect class="st10" x="896.4" y="281.2" width="58.6" height="58.6"/>
  <rect class="st10" x="955.1" y="281.2" width="58.6" height="58.6"/>
  <rect class="st10" x="1013.7" y="281.2" width="58.6" height="58.6"/>
  <rect class="st10" x="1072.3" y="281.2" width="58.6" height="58.6"/>
  <rect class="st10" x="1131" y="281.2" width="58.6" height="58.6"/>
  <rect class="st10" x="1189.6" y="281.2" width="58.6" height="58.6"/>
  <rect class="st10" x="1248.3" y="281.2" width="58.6" height="58.6"/>
  <rect class="st10" x="1307" y="339.8" width="58.6" height="58.6"/>
  <rect class="st10" x="1307" y="398.6" width="58.6" height="58.6"/>
  <rect class="st10" x="1307" y="457.2" width="58.6" height="58.6"/>
  <rect class="st10" x="1307" y="515.8" width="58.6" height="58.6"/>
  <rect class="st10" x="1307" y="574.5" width="58.6" height="58.6"/>
  <rect class="st10" x="1307" y="845.8" width="58.6" height="58.6"/>
  <rect class="st10" x="1081.1" y="767.6" width="81.1" height="58.6"/>
  <rect class="st10" x="1081.1" y="826.2" width="81.1" height="58.6"/>
  <rect class="st10" x="1000" y="767.6" width="81.1" height="58.6"/>
  <rect class="st10" x="1000" y="826.2" width="81.1" height="58.6"/>
  <rect class="st10" x="918.9" y="767.6" width="81.1" height="58.6"/>
  <rect class="st10" x="918.9" y="826.2" width="81.1" height="58.6"/>
  <rect class="st10" x="837.7" y="767.6" width="81.1" height="58.6"/>
  <rect class="st10" x="837.7" y="826.2" width="81.1" height="58.6"/>
  <rect class="st10" x="1307" y="904.4" width="58.6" height="58.6"/>
  <rect class="st10" x="1307" y="963" width="58.6" height="58.6"/>
  <rect class="st10" x="1307" y="1021.7" width="58.6" height="58.6"/>
  <rect class="st10" x="1307" y="1080.3" width="58.6" height="58.6"/>
  <rect class="st10" x="1307" y="1139" width="58.6" height="58.6"/>
  <rect class="st10" x="1307" y="1197.7" width="58.6" height="58.6"/>
  <rect class="st10" x="1307" y="1256.3" width="58.6" height="58.6"/>
  <rect class="st10" x="1248.3" y="1315" width="58.6" height="58.6"/>
  <rect class="st10" x="1189.6" y="1315" width="58.6" height="58.6"/>
  <rect class="st10" x="1131" y="1315" width="58.6" height="58.6"/>
  <rect class="st10" x="1072.3" y="1315" width="58.6" height="58.6"/>
  <rect class="st10" x="723.4" y="1315" width="58.6" height="58.6"/>
  <rect class="st10" x="664.8" y="1315" width="58.6" height="58.6"/>
  <rect class="st10" x="606.2" y="1315" width="58.6" height="58.6"/>
  <rect class="st10" x="547.5" y="1315" width="58.6" height="58.6"/>
  <rect class="st10" x="488.9" y="1315" width="58.6" height="58.6"/>
  <rect class="st1" x="429.8" y="398.6" width="90.7" height="269"/>
  <rect class="st9" x="429.8" y="1021.7" width="65.3" height="205.2"/>
  <rect class="st0" x="620.4" y="385.5" width="344.5" height="106.4"/>
  <rect class="st0" x="620.4" y="588.6" width="344.5" height="124.2"/>
  <rect class="st0" x="974.1" y="385.5" width="253.8" height="327.4"/>
  <rect class="st0" x="974.1" y="933.7" width="253.8" height="327.4"/>
  <rect class="st0" x="567.2" y="933.7" width="327.4" height="327.4"/>
  <rect class="st8" x="1307" y="650.8" width="124.2" height="177.4"/>
  <rect class="st11" x="837.3" y="1318.8" width="158.6" height="124.2"/>
  <rect class="st3" x="1645.6" y="528.6" width="1516.2" height="346.5"/>
  <rect class="st4" x="1645.6" y="65.9" width="644.8" height="54"/>
  <rect class="st5" x="637.9" y="1811.9" width="557.4" height="189.2"/>
  <rect class="st6" x="3551.5" y="672.9" width="29.6" height="134.5"/>
  <rect class="st6" x="402" y="1459.3" width="44.7" height="732.7"/>
  <rect class="st6" x="402" y="2195.3" width="1027.3" height="44.7"/>
  <rect class="st6" x="1386.5" y="1459.3" width="44.7" height="732.7"/>
  <rect class="st7" x="1506.2" y="2123.5" width="146.1" height="55.8"/>
  <rect class="st2" x="1506.2" y="2035.3" width="146.1" height="55.8"/>
  <rect class="st2" x="1592.1" y="249.6" width="146.1" height="55.8" transform="translate(1942.6 -1387.7) rotate(90)"/>
  <rect class="st2" x="1532" y="1096.5" width="58.6" height="58.6"/>
</svg>