<?xml version="1.0" encoding="UTF-8"?>
<svg id="Capa_1" xmlns="http://www.w3.org/2000/svg" version="1.1" viewBox="0 0 3916 2586">
  <!-- Generator: Adobe Illustrator 29.8.1, SVG Export Plug-In . SVG Version: 2.1.1 Build 2)  -->
  <defs>
    <style>
      .st0 {
        fill: red;
      }

      .st0, .st1, .st2, .st3, .st4, .st5, .st6, .st7, .st8, .st9, .st10, .st11, .st12, .st13, .st14, .st15, .st16, .st17 {
        isolation: isolate;
      }

      .st1 {
        fill: #79b279;
      }

      .st2 {
        fill: #00c9ff;
      }

      .st3 {
        fill: blue;
      }

      .st4 {
        fill: #d0dd22;
      }

      .st5 {
        fill: #c78bcc;
      }

      .st6 {
        fill: #ff00f3;
      }

      .st7 {
        fill: #a2ff00;
      }

      .st9 {
        fill: #a700ff;
      }

      .st10 {
        fill: #ffb000;
      }

      .st11 {
        fill: #289332;
      }

      .st12 {
        fill: #c1005c;
      }

      .st13 {
        opacity: .7;
      }

      .st14 {
        fill: #00ffa3;
      }

      .st15 {
        fill: #511803;
      }

      .st16 {
        fill: #b3ffce;
      }

      .st17 {
        fill: #686868;
      }
    </style>
  </defs>
  <g>
    <rect class="st13" x="602.7" y="280.6" width="117" height="58"/>
    <rect class="st13" x="720.6" y="280.6" width="58" height="58"/>
    <rect class="st13" x="491.5" y="238.7" width="58" height="58"/>
    <rect class="st13" x="779.6" y="280.6" width="58" height="58"/>
    <rect class="st13" x="838.6" y="280.6" width="58" height="58"/>
    <rect class="st13" x="897.6" y="280.6" width="58" height="58"/>
    <rect class="st13" x="956.6" y="280.6" width="58" height="58"/>
    <rect class="st13" x="1015.6" y="280.6" width="58" height="58"/>
    <rect class="st13" x="1074.6" y="280.6" width="58" height="58"/>
    <rect class="st13" x="1133.6" y="280.6" width="58" height="58"/>
    <rect class="st13" x="1192.6" y="280.6" width="117" height="58"/>
  </g>
  <g>
    <rect class="st13" x="1310.6" y="339.6" width="58" height="58"/>
    <rect class="st13" x="1310.6" y="398.6" width="58" height="117"/>
    <rect class="st13" x="1310.6" y="516.6" width="58" height="117"/>
  </g>
  <g>
    <rect class="st13" x="1310.6" y="1199.6" width="58" height="117"/>
    <rect class="st13" x="1310.6" y="846.8" width="58" height="233.8"/>
    <rect class="st13" x="1310.6" y="1081.6" width="58" height="58"/>
    <rect class="st13" x="1310.6" y="1140.6" width="58" height="58"/>
  </g>
  <g>
    <rect class="st13" x="1192.6" y="1317.6" width="117" height="58"/>
    <rect class="st13" x="1133.6" y="1317.6" width="58" height="58"/>
    <rect class="st13" x="1074.6" y="1317.6" width="58" height="58"/>
  </g>
  <g>
    <g>
      <rect class="st3" x="401.1" y="1524.7" width="58" height="58"/>
      <rect class="st8" x="401.1" y="1590.8" width="58" height="165.7"/>
      <rect class="st9" x="401.1" y="1890.6" width="58" height="110.7"/>
      <rect class="st14" x="401.5" y="2135.4" width="57.5" height="60"/>
      <rect class="st6" x="401.1" y="1764.7" width="58.1" height="117.8"/>
      <rect class="st2" x="401.1" y="2009.4" width="58.1" height="117.8"/>
    </g>
    <g>
      <rect class="st1" x="1372.3" y="1735.8" width="58" height="179.4"/>
      <rect class="st5" x="1372.3" y="1524.7" width="58" height="58"/>
      <rect class="st15" x="1372.3" y="1599.1" width="58" height="120.2"/>
      <rect class="st17" x="1372.3" y="2058.1" width="58" height="137.3"/>
      <rect class="st0" x="1372.3" y="1931.7" width="58" height="109.9"/>
    </g>
    <g>
      <rect class="st12" x="672.2" y="2221.4" width="121.6" height="58"/>
      <rect class="st10" x="1155.2" y="2221.4" width="201.4" height="58"/>
      <rect class="st16" x="809.7" y="2221.4" width="141" height="58"/>
      <rect class="st4" x="1060.9" y="2221.4" width="78.5" height="58"/>
      <rect class="st7" x="474.7" y="2221.4" width="181.7" height="58"/>
      <rect class="st11" x="966.6" y="2221.4" width="78.5" height="58"/>
    </g>
  </g>
  <g>
    <rect class="st13" x="661.6" y="1317.6" width="117" height="58"/>
    <rect class="st13" x="602.6" y="1317.6" width="58" height="58"/>
    <rect class="st13" x="543.6" y="1317.6" width="58" height="58"/>
    <rect class="st13" x="484.6" y="1317.6" width="58" height="58"/>
  </g>
  <rect class="st13" x="510.6" y="899.3" width="29.7" height="73.2"/>
  <g>
    <rect class="st13" x="980.7" y="768.6" width="58" height="58"/>
    <rect class="st13" x="921.7" y="768.6" width="58" height="58"/>
    <rect class="st13" x="921.7" y="827.9" width="117" height="58"/>
  </g>
  <rect class="st13" x="960.5" y="506.8" width="117" height="58"/>
  <rect class="st13" x="1527.2" y="1005" width="58" height="58"/>
</svg>