<?xml version="1.0" encoding="UTF-8"?>
<svg id="Capa_1" xmlns="http://www.w3.org/2000/svg" version="1.1" viewBox="0 0 3916.9 2326.6">
  <!-- Generator: Adobe Illustrator 29.8.1, SVG Export Plug-In . SVG Version: 2.1.1 Build 2)  -->
  <defs>
    <style>
      .st0 {
        fill: blue;
      }
    </style>
  </defs>
  <rect class="st0" x="544.9" y="281.2" width="58.6" height="58.6"/>
  <rect class="st0" x="603.5" y="281.2" width="58.6" height="58.6"/>
  <rect class="st0" x="662.1" y="281.2" width="58.6" height="58.6"/>
  <rect class="st0" x="720.7" y="281.2" width="58.6" height="58.6"/>
  <rect class="st0" x="779.3" y="281.2" width="58.6" height="58.6"/>
  <rect class="st0" x="837.9" y="281.2" width="58.6" height="58.6"/>
  <rect class="st0" x="896.5" y="281.2" width="58.6" height="58.6"/>
  <rect class="st0" x="955.1" y="281.2" width="58.6" height="58.6"/>
  <rect class="st0" x="1013.7" y="281.2" width="58.6" height="58.6"/>
  <rect class="st0" x="1072.3" y="281.2" width="58.6" height="58.6"/>
  <rect class="st0" x="1130.9" y="281.2" width="58.6" height="58.6"/>
  <rect class="st0" x="1189.5" y="281.2" width="58.6" height="58.6"/>
  <rect class="st0" x="1248.1" y="281.2" width="58.6" height="58.6"/>
  <rect class="st0" x="1307" y="339.8" width="58.6" height="58.6"/>
  <rect class="st0" x="1307" y="398.4" width="58.6" height="58.6"/>
  <rect class="st0" x="1307" y="457" width="58.6" height="58.6"/>
  <rect class="st0" x="1307" y="515.6" width="58.6" height="58.6"/>
  <rect class="st0" x="1307" y="574.2" width="58.6" height="58.6"/>
  <rect class="st0" x="1307" y="846.1" width="58.6" height="58.6"/>
  <rect class="st0" x="1081.1" y="767.6" width="81.1" height="58.6"/>
  <rect class="st0" x="1081.1" y="826.2" width="81.1" height="58.6"/>
  <rect class="st0" x="1000" y="767.6" width="81.1" height="58.6"/>
  <rect class="st0" x="1000" y="826.2" width="81.1" height="58.6"/>
  <rect class="st0" x="918.9" y="767.6" width="81.1" height="58.6"/>
  <rect class="st0" x="918.9" y="826.2" width="81.1" height="58.6"/>
  <rect class="st0" x="837.8" y="767.6" width="81.1" height="58.6"/>
  <rect class="st0" x="837.8" y="826.2" width="81.1" height="58.6"/>
  <rect class="st0" x="1307" y="904.7" width="58.6" height="58.6"/>
  <rect class="st0" x="1307" y="963.3" width="58.6" height="58.6"/>
  <rect class="st0" x="1307" y="1021.9" width="58.6" height="58.6"/>
  <rect class="st0" x="1307" y="1080.5" width="58.6" height="58.6"/>
  <rect class="st0" x="1307" y="1139.1" width="58.6" height="58.6"/>
  <rect class="st0" x="1307" y="1197.7" width="58.6" height="58.6"/>
  <rect class="st0" x="1307" y="1256.3" width="58.6" height="58.6"/>
  <rect class="st0" x="1248.3" y="1315" width="58.6" height="58.6"/>
  <rect class="st0" x="1189.7" y="1315" width="58.6" height="58.6"/>
  <rect class="st0" x="1131.1" y="1315" width="58.6" height="58.6"/>
  <rect class="st0" x="1072.5" y="1315" width="58.6" height="58.6"/>
  <rect class="st0" x="723.3" y="1315" width="58.6" height="58.6"/>
  <rect class="st0" x="664.7" y="1315" width="58.6" height="58.6"/>
  <rect class="st0" x="606.1" y="1315" width="58.6" height="58.6"/>
  <rect class="st0" x="547.5" y="1315" width="58.6" height="58.6"/>
  <rect class="st0" x="488.9" y="1315" width="58.6" height="58.6"/>
</svg>