<?xml version="1.0" encoding="UTF-8"?>
<svg id="Capa_1" xmlns="http://www.w3.org/2000/svg" version="1.1" viewBox="0 0 3916 2586">
  <!-- Generator: Adobe Illustrator 29.8.1, SVG Export Plug-In . SVG Version: 2.1.1 Build 2)  -->
  <defs>
    <style>
      .st0 {
        fill: #d0dd22;
      }

      .st0, .st1, .st2, .st3, .st4, .st5, .st6, .st7, .st8, .st9, .st10, .st11, .st12, .st13, .st14, .st15, .st16, .st17, .st18 {
        isolation: isolate;
        opacity: .7;
      }

      .st1 {
        fill: #6d6db5;
      }

      .st2 {
        fill: #00ffa3;
      }

      .st3 {
        fill: #289332;
      }

      .st4 {
        fill: blue;
      }

      .st5 {
        fill: #ffb000;
      }

      .st6 {
        fill: #c1005c;
      }

      .st7 {
        fill: #00c9ff;
      }

      .st8 {
        fill: #a700ff;
      }

      .st9 {
        fill: red;
      }

      .st10 {
        fill: #c78bcc;
      }

      .st11 {
        fill: #79b279;
      }

      .st12 {
        fill: #b3ffce;
      }

      .st13 {
        fill: #686868;
      }

      .st15 {
        fill: #511803;
      }

      .st16 {
        fill: #d36400;
      }

      .st17 {
        fill: #a2ff00;
      }

      .st18 {
        fill: #ff00f3;
      }
    </style>
  </defs>
  <rect class="st14" x="1310.6" y="1199.6" width="58" height="117"/>
  <rect class="st14" x="543.6" y="280.6" width="117" height="58"/>
  <rect class="st14" x="661.6" y="280.6" width="58" height="58"/>
  <rect class="st14" x="720.6" y="280.6" width="58" height="58"/>
  <rect class="st14" x="779.6" y="280.6" width="58" height="58"/>
  <rect class="st14" x="838.6" y="280.6" width="58" height="58"/>
  <rect class="st14" x="897.6" y="280.6" width="58" height="58"/>
  <rect class="st14" x="850.1" y="768.9" width="58" height="58"/>
  <rect class="st14" x="909.1" y="768.9" width="58" height="58"/>
  <rect class="st14" x="968.1" y="768.9" width="58" height="117"/>
  <rect class="st14" x="956.6" y="280.6" width="58" height="58"/>
  <rect class="st14" x="1015.6" y="280.6" width="58" height="58"/>
  <rect class="st14" x="1074.6" y="280.6" width="58" height="58"/>
  <rect class="st14" x="1133.6" y="280.6" width="58" height="58"/>
  <rect class="st14" x="1192.6" y="280.6" width="117" height="58"/>
  <rect class="st14" x="1310.6" y="339.6" width="58" height="58"/>
  <rect class="st14" x="1310.6" y="398.6" width="58" height="117"/>
  <rect class="st14" x="1310.6" y="516.6" width="58" height="117"/>
  <rect class="st14" x="1310.6" y="845.6" width="58" height="235"/>
  <rect class="st14" x="1310.6" y="1081.6" width="58" height="58"/>
  <rect class="st14" x="1310.6" y="1140.6" width="58" height="58"/>
  <rect class="st14" x="1192.6" y="1317.6" width="117" height="58"/>
  <rect class="st14" x="1133.6" y="1317.6" width="58" height="58"/>
  <rect class="st14" x="1074.6" y="1317.6" width="58" height="58"/>
  <rect class="st14" x="661.6" y="1317.6" width="117" height="58"/>
  <rect class="st14" x="602.6" y="1317.6" width="58" height="58"/>
  <rect class="st4" x="356.2" y="1494.1" width="58" height="58"/>
  <rect class="st14" x="356.2" y="1697.4" width="58" height="58"/>
  <rect class="st8" x="356.2" y="1957.1" width="58" height="58"/>
  <rect class="st17" x="535.1" y="2236.7" width="58" height="58"/>
  <rect class="st6" x="1002.8" y="2236.7" width="58" height="58"/>
  <rect class="st13" x="1412.5" y="2038.6" width="58" height="58"/>
  <rect class="st11" x="1412.5" y="1728" width="58" height="58"/>
  <rect class="st10" x="1412.5" y="1528.6" width="58" height="58"/>
  <rect class="st15" x="1412.5" y="1655.2" width="58" height="58"/>
  <rect class="st5" x="1196.6" y="2236.7" width="78" height="58"/>
  <rect class="st1" x="728.8" y="2236.7" width="78.5" height="58"/>
  <rect class="st12" x="814.9" y="2236.7" width="116.3" height="58"/>
  <rect class="st0" x="1072.2" y="2236.7" width="116.3" height="58"/>
  <rect class="st6" x="940.2" y="2236.7" width="55.3" height="38.4"/>
  <rect class="st8" x="374.7" y="1894.8" width="39.5" height="55.1"/>
  <rect class="st2" x="374.7" y="2150.2" width="39.5" height="60"/>
  <rect class="st14" x="374.4" y="1575.8" width="39.9" height="117.8"/>
  <rect class="st18" x="374.4" y="1765.5" width="39.9" height="117.8"/>
  <rect class="st7" x="374.4" y="2022.4" width="39.9" height="117.8"/>
  <rect class="st13" x="1412.5" y="2102.4" width="39.9" height="137.3"/>
  <rect class="st9" x="1412.5" y="1919.7" width="39.9" height="109.9"/>
  <rect class="st11" x="1412.5" y="1790.2" width="39.9" height="117.9"/>
  <rect class="st15" x="1412.5" y="1593.2" width="39.9" height="55.2"/>
  <rect class="st17" x="413.9" y="2236.7" width="117.8" height="39.9"/>
  <rect class="st3" x="603.4" y="2236.7" width="117.8" height="39.9"/>
  <rect class="st16" x="1278.6" y="2236.7" width="117.8" height="39.9"/>
  <rect class="st14" x="485.9" y="1317.6" width="115.7" height="58"/>
  <rect class="st14" x="850.1" y="827.9" width="117" height="58"/>
</svg>